<?xml version ="1.0" encoding="UTF-8" ?>
<svg xmlns="http://www.w3.org/2000/svg" version="1.1">

<!--face--> 
  <polygon points="   0.000,   0.000   20.000,   0.000   20.000,   3.000   39.000,   3.000   39.000,   6.000   37.700,   6.000   37.700,   7.500   39.000,   7.500   39.000,  10.500   41.000,  10.500   41.000,   7.500   42.300,   7.500   42.300,   6.000   41.000,   6.000   41.000,   3.000   60.000,   3.000   60.000,   0.000   80.000,   0.000   80.000,  22.500   77.000,  22.500   77.000,  44.000   74.000,  44.000   74.000,  42.700   72.500,  42.700   72.500,  44.000   69.500,  44.000   69.500,  46.000   72.500,  46.000   72.500,  47.300   74.000,  47.300   74.000,  46.000   77.000,  46.000   77.000,  67.500   80.000,  67.500   80.000,  90.000   60.000,  90.000   60.000,  87.000   41.000,  87.000   41.000,  84.000   42.300,  84.000   42.300,  82.500   41.000,  82.500   41.000,  79.500   39.000,  79.500   39.000,  82.500   37.700,  82.500   37.700,  84.000   39.000,  84.000   39.000,  87.000   20.000,  87.000   20.000,  90.000    0.000,  90.000    0.000,  67.500    3.000,  67.500    3.000,  46.000    6.000,  46.000    6.000,  47.300    7.500,  47.300    7.500,  46.000   10.500,  46.000   10.500,  44.000    7.500,  44.000    7.500,  42.700    6.000,  42.700    6.000,  44.000    3.000,  44.000    3.000,  22.500    0.000,  22.500    0.000,   0.000 " 
 fill="none" stroke="black" />

<!--face--> 
  <polygon points="   3.000,  93.000   77.000,  93.000   77.000, 118.000   80.000, 118.000   80.000, 168.000   77.000, 168.000   77.000, 190.000   60.000, 190.000   60.000, 193.000   20.000, 193.000   20.000, 190.000    3.000, 190.000    3.000, 168.000    0.000, 168.000    0.000, 118.000    3.000, 118.000    3.000,  93.000 " 
 fill="none" stroke="black" />
  <circle cx="  40.000" cy=" 191.500" r="   1.000"  fill="none" stroke="black" />
  <circle cx="  78.500" cy=" 143.000" r="   1.000"  fill="none" stroke="black" />
  <circle cx="   1.500" cy=" 143.000" r="   1.000"  fill="none" stroke="black" />

<!--text--> 
  <style>
  .small { font: bold 6px sans-serif; fill: red;}
  </style>
  <text x="40" y="143" text-anchor="middle" class="small"> JH XW </text>

<!--face--> 
  <polygon points="   3.000, 196.000   77.000, 196.000   77.000, 221.000   80.000, 221.000   80.000, 271.000   77.000, 271.000   77.000, 293.000   60.000, 293.000   60.000, 296.000   20.000, 296.000   20.000, 293.000    3.000, 293.000    3.000, 271.000    0.000, 271.000    0.000, 221.000    3.000, 221.000    3.000, 196.000 " 
 fill="none" stroke="black" />
  <circle cx="  40.000" cy=" 294.500" r="   1.000"  fill="none" stroke="black" />
  <circle cx="  78.500" cy=" 246.000" r="   1.000"  fill="none" stroke="black" />
  <circle cx="   1.500" cy=" 246.000" r="   1.000"  fill="none" stroke="black" />

<!--face--> 
  <polygon points="  83.000,   6.000   83.367,   3.682   84.432,   1.592   86.092,  -0.068   88.182,  -1.133   90.500,  -1.500   92.818,  -1.133   94.908,  -0.068   96.568,   1.592   97.633,   3.682   98.000,   6.000  173.000,   6.000  173.000,  31.000  170.000,  31.000  170.000,  55.000  167.000,  55.000  167.000,  53.700  165.500,  53.700  165.500,  55.000  162.500,  55.000  162.500,  57.000  165.500,  57.000  165.500,  58.300  167.000,  58.300  167.000,  57.000  170.000,  57.000  170.000,  81.000  173.000,  81.000  173.000, 103.000  150.500, 103.000  150.500, 106.000  105.500, 106.000  105.500, 103.000   83.000, 103.000   83.000,  81.000   86.000,  81.000   86.000,  57.000   89.000,  57.000   89.000,  58.300   90.500,  58.300   90.500,  57.000   93.500,  57.000   93.500,  55.000   90.500,  55.000   90.500,  53.700   89.000,  53.700   89.000,  55.000   86.000,  55.000   86.000,  31.000   83.000,  31.000   83.000,   6.000 " 
 fill="none" stroke="black" />
  <circle cx=" 128.000" cy=" 104.500" r="   1.000"  fill="none" stroke="black" />
  <circle cx="  90.500" cy="   4.500" r="   2.250"  fill="none" stroke="black" />

<!--face--> 
  <polygon points=" 113.000,  30.250  116.000,  30.250  116.000,  78.750  113.000,  78.750  113.000,  30.250 " 
 fill="none" stroke="black" />

<!--face--> 
  <polygon points="  83.000, 112.000   83.367, 109.682   84.432, 107.592   86.092, 105.932   88.182, 104.867   90.500, 104.500   92.818, 104.867   94.908, 105.932   96.568, 107.592   97.633, 109.682   98.000, 112.000  173.000, 112.000  173.000, 137.000  170.000, 137.000  170.000, 161.000  167.000, 161.000  167.000, 159.700  165.500, 159.700  165.500, 161.000  162.500, 161.000  162.500, 163.000  165.500, 163.000  165.500, 164.300  167.000, 164.300  167.000, 163.000  170.000, 163.000  170.000, 187.000  173.000, 187.000  173.000, 209.000  150.500, 209.000  150.500, 212.000  105.500, 212.000  105.500, 209.000   83.000, 209.000   83.000, 187.000   86.000, 187.000   86.000, 163.000   89.000, 163.000   89.000, 164.300   90.500, 164.300   90.500, 163.000   93.500, 163.000   93.500, 161.000   90.500, 161.000   90.500, 159.700   89.000, 159.700   89.000, 161.000   86.000, 161.000   86.000, 137.000   83.000, 137.000   83.000, 112.000 " 
 fill="none" stroke="black" />
  <circle cx=" 128.000" cy=" 210.500" r="   1.000"  fill="none" stroke="black" />
  <circle cx="  90.500" cy=" 110.500" r="   2.250"  fill="none" stroke="black" />

<!--face--> 
  <polygon points=" 113.000, 136.250  116.000, 136.250  116.000, 184.750  113.000, 184.750  113.000, 136.250 " 
 fill="none" stroke="black" />

<!--pattern--> 
  <polygon points="  60.000, 246.000   31.474, 264.092   27.269, 230.576   59.380, 241.058   36.209, 265.637   23.852, 234.200   57.558, 236.423   41.178, 265.965   21.437, 238.555   54.647, 232.382   46.075, 265.055   20.173, 243.372   50.829, 229.185   50.595, 262.963   20.139, 248.353   46.338, 227.031   54.457, 259.820   21.336, 253.187   41.455, 226.053   57.424, 255.819   23.690, 257.576   36.481, 226.312   59.310, 251.209   27.056, 261.247   31.726, 227.792   59.998, 246.277   31.225, 263.972   27.483, 230.401   59.446, 241.327   35.937, 265.583   24.017, 233.977   57.689, 236.667   40.902, 265.980   21.542, 238.299   54.835, 232.586   45.810, 265.137   20.212, 243.098   51.060, 229.337   50.359, 263.108   20.108, 248.077   46.600, 227.120   54.265, 260.018   21.238, 252.928   41.731, 226.075   57.286, 256.059   23.532, 257.349   36.754, 226.265   59.236, 251.476   26.846, 261.066   31.979, 227.679   59.992, 246.554   30.977, 263.849   27.701, 230.229   59.509, 241.597   35.667, 265.525   24.185, 233.757   57.817, 236.913   40.625, 265.990   21.651, 238.044   55.019, 232.793   45.545, 265.216   20.254, 242.824   51.290, 229.491   50.121, 263.250   20.081, 247.802   46.861, 227.214   54.069, 260.215   21.144, 252.667   42.007, 226.101   57.145, 256.298   23.376, 257.120   37.028, 226.222   59.158, 251.742   26.639, 260.882   32.233, 227.570   59.983, 246.831   30.730, 263.722   27.920, 230.060   59.568, 241.867   35.397, 265.463   24.356, 233.539   57.941, 237.161   40.348, 265.997   21.762, 237.791   55.200, 233.002   45.278, 265.291   20.300, 242.551   51.518, 229.649   49.881, 263.389   20.058, 247.526   47.120, 227.310   53.871, 260.408   21.054, 252.406   42.282, 226.131   57.001, 256.534   23.224, 256.888   37.302, 226.183   59.077, 252.007   26.434, 260.696   32.489, 227.464   59.969, 247.107   30.486, 263.592   28.142, 229.894   59.624, 242.139   35.128, 265.397   24.530, 233.324   58.061, 237.410   40.071, 266.000   21.878, 237.539   55.379, 233.214   45.011, 265.362   20.349, 242.279   51.743, 229.810   49.639, 263.524   20.039, 247.250   47.379, 227.411   53.670, 260.599   20.967, 252.143   42.557, 226.164   56.853, 256.769   23.075, 256.655   37.576, 226.147   58.992, 252.270   26.232, 260.507   32.746, 227.362   59.952, 247.384   30.243, 263.459   28.366, 229.732   59.675, 242.411   34.859, 265.328   24.707, 233.111   58.179, 237.661   39.794, 265.999   21.997, 237.289   55.554, 233.428   44.742, 265.430   20.403, 242.007   51.966, 229.974   49.396, 263.656   20.024, 246.973   47.635, 227.515   53.467, 260.787   20.883, 251.879   42.831, 226.201   56.703, 257.001   22.929, 256.420   37.852, 226.116   58.903, 252.533   26.032, 260.315   33.005, 227.263   59.931, 247.660   30.002, 263.322   28.593, 229.572   59.723, 242.684   34.592, 265.255   24.887, 232.900   58.292, 237.913   39.517, 265.994   22.119, 237.040   55.727, 233.644   44.473, 265.493   20.460, 241.736   52.187, 230.142   49.150, 263.784   20.012, 246.696   47.890, 227.622   53.261, 260.972   20.804, 251.613   43.105, 226.243   56.549, 257.231   22.786, 256.182   38.127, 226.088   58.811, 252.794   25.836, 260.120   33.265, 227.168   59.906, 247.936   29.764, 263.182   28.821, 229.416   59.767, 242.957   34.326, 265.178 " 
 fill="none" stroke="blue" />
  <polygon points="  70.000, 246.000   55.737, 255.046   53.634, 238.288   69.690, 243.529   58.104, 255.819   51.926, 240.100   68.779, 241.212   60.589, 255.983   50.719, 242.278   67.324, 239.191   63.037, 255.528   50.087, 244.686   65.414, 237.593   65.297, 254.482   50.069, 247.176   63.169, 236.515   67.229, 252.910   50.668, 249.594   60.727, 236.026   68.712, 250.909   51.845, 251.788   58.241, 236.156   69.655, 248.605   53.528, 253.623   55.863, 236.896   69.999, 246.138   55.612, 254.986   53.742, 238.200   69.723, 243.664   57.969, 255.792   52.009, 239.989   68.844, 241.334   60.451, 255.990   50.771, 242.149   67.417, 239.293   62.905, 255.569   50.106, 244.549   65.530, 237.668   65.179, 254.554   50.054, 247.039   63.300, 236.560   67.132, 253.009   50.619, 249.464   60.865, 236.038   68.643, 251.030   51.766, 251.674   58.377, 236.133   69.618, 248.738   53.423, 253.533   55.989, 236.840   69.996, 246.277   55.488, 254.924   53.850, 238.114   69.755, 243.798   57.833, 255.762   52.093, 239.878   68.908, 241.457   60.313, 255.995   50.825, 242.022   67.509, 239.396   62.772, 255.608   50.127, 244.412   65.645, 237.746   65.060, 254.625   50.041, 246.901   63.430, 236.607   67.035, 253.107   50.572, 249.334   61.003, 236.050   68.573, 251.149   51.688, 251.560   58.514, 236.111   69.579, 248.871   53.320, 253.441   56.117, 236.785   69.991, 246.415   55.365, 254.861   53.960, 238.030   69.784, 243.934   57.698, 255.732   52.178, 239.770   68.970, 241.580   60.174, 255.998   50.881, 241.895   67.600, 239.501   62.639, 255.645   50.150, 244.276   65.759, 237.825   64.941, 254.694   50.029, 246.763   63.560, 236.655   66.936, 253.204   50.527, 249.203   61.141, 236.065   68.500, 251.267   51.612, 251.444   58.651, 236.091   69.538, 249.003   53.217, 253.348   56.245, 236.732   69.985, 246.554   55.243, 254.796   54.071, 237.947   69.812, 244.069   57.564, 255.699   52.265, 239.662   69.031, 241.705   60.036, 256.000   50.939, 241.769   67.689, 239.607   62.505, 255.681   50.175, 244.139   65.871, 237.905   64.820, 254.762   50.020, 246.625   63.689, 236.705   66.835, 253.299   50.483, 249.071   61.278, 236.082   68.427, 251.384   51.537, 251.328   58.788, 236.074   69.496, 249.135   53.116, 253.253   56.373, 236.681   69.976, 246.692   55.122, 254.729   54.183, 237.866   69.838, 244.205   57.430, 255.664   52.354, 239.555   69.089, 241.830   59.897, 255.999   50.998, 241.644   67.777, 239.714   62.371, 255.715   50.201, 244.004   65.983, 237.987   64.698, 254.828   50.012, 246.487   63.818, 236.757   66.733, 253.393   50.442, 248.939   61.416, 236.101   68.351, 251.500   51.464, 251.210   58.926, 236.058   69.451, 249.266   53.016, 253.157   56.503, 236.632   69.966, 246.830   55.001, 254.661   54.296, 237.786   69.862, 244.342   57.296, 255.628   52.444, 239.450   69.146, 241.957   59.759, 255.997   51.060, 241.520   67.864, 239.822   62.236, 255.747   50.230, 243.868   66.093, 238.071   64.575, 254.892   50.006, 246.348   63.945, 236.811   66.630, 253.486   50.402, 248.807   61.553, 236.121   68.274, 251.616   51.393, 251.091   59.064, 236.044   69.405, 249.397   52.918, 253.060   56.633, 236.584   69.953, 246.968   54.882, 254.591   54.411, 237.708   69.884, 244.479   57.163, 255.589 " 
 fill="none" stroke="blue" />
  <polygon points="  30.000, 246.000   15.737, 255.046   13.634, 238.288   29.690, 243.529   18.104, 255.819   11.926, 240.100   28.779, 241.212   20.589, 255.983   10.719, 242.278   27.324, 239.191   23.037, 255.528   10.087, 244.686   25.414, 237.593   25.297, 254.482   10.069, 247.176   23.169, 236.515   27.229, 252.910   10.668, 249.594   20.727, 236.026   28.712, 250.909   11.845, 251.788   18.241, 236.156   29.655, 248.605   13.528, 253.623   15.863, 236.896   29.999, 246.138   15.612, 254.986   13.742, 238.200   29.723, 243.664   17.969, 255.792   12.009, 239.989   28.844, 241.334   20.451, 255.990   10.771, 242.149   27.417, 239.293   22.905, 255.569   10.106, 244.549   25.530, 237.668   25.179, 254.554   10.054, 247.039   23.300, 236.560   27.132, 253.009   10.619, 249.464   20.865, 236.038   28.643, 251.030   11.766, 251.674   18.377, 236.133   29.618, 248.738   13.423, 253.533   15.989, 236.840   29.996, 246.277   15.488, 254.924   13.850, 238.114   29.755, 243.798   17.833, 255.762   12.093, 239.878   28.908, 241.457   20.313, 255.995   10.825, 242.022   27.509, 239.396   22.772, 255.608   10.127, 244.412   25.645, 237.746   25.060, 254.625   10.041, 246.901   23.430, 236.607   27.035, 253.107   10.572, 249.334   21.003, 236.050   28.573, 251.149   11.688, 251.560   18.514, 236.111   29.579, 248.871   13.320, 253.441   16.117, 236.785   29.991, 246.415   15.365, 254.861   13.960, 238.030   29.784, 243.934   17.698, 255.732   12.178, 239.770   28.970, 241.580   20.174, 255.998   10.881, 241.895   27.600, 239.501   22.639, 255.645   10.150, 244.276   25.759, 237.825   24.941, 254.694   10.029, 246.763   23.560, 236.655   26.936, 253.204   10.527, 249.203   21.141, 236.065   28.500, 251.267   11.612, 251.444   18.651, 236.091   29.538, 249.003   13.217, 253.348   16.245, 236.732   29.985, 246.554   15.243, 254.796   14.071, 237.947   29.812, 244.069   17.564, 255.699   12.265, 239.662   29.031, 241.705   20.036, 256.000   10.939, 241.769   27.689, 239.607   22.505, 255.681   10.175, 244.139   25.871, 237.905   24.820, 254.762   10.020, 246.625   23.689, 236.705   26.835, 253.299   10.483, 249.071   21.278, 236.082   28.427, 251.384   11.537, 251.328   18.788, 236.074   29.496, 249.135   13.116, 253.253   16.373, 236.681   29.976, 246.692   15.122, 254.729   14.183, 237.866   29.838, 244.205   17.430, 255.664   12.354, 239.555   29.089, 241.830   19.897, 255.999   10.998, 241.644   27.777, 239.714   22.371, 255.715   10.201, 244.004   25.983, 237.987   24.698, 254.828   10.012, 246.487   23.818, 236.757   26.733, 253.393   10.442, 248.939   21.416, 236.101   28.351, 251.500   11.464, 251.210   18.926, 236.058   29.451, 249.266   13.016, 253.157   16.503, 236.632   29.966, 246.830   15.001, 254.661   14.296, 237.786   29.862, 244.342   17.296, 255.628   12.444, 239.450   29.146, 241.957   19.759, 255.997   11.060, 241.520   27.864, 239.822   22.236, 255.747   10.230, 243.868   26.093, 238.071   24.575, 254.892   10.006, 246.348   23.945, 236.811   26.630, 253.486   10.402, 248.807   21.553, 236.121   28.274, 251.616   11.393, 251.091   19.064, 236.044   29.405, 249.397   12.918, 253.060   16.633, 236.584   29.953, 246.968   14.882, 254.591   14.411, 237.708   29.884, 244.479   17.163, 255.589 " 
 fill="none" stroke="blue" />
  <polygon points="  75.000, 246.000   67.869, 250.523   66.817, 242.144   74.845, 244.765   69.052, 250.909   65.963, 243.050   74.390, 243.606   70.295, 250.991   65.359, 244.139   73.662, 242.595   71.519, 250.764   65.043, 245.343   72.707, 241.796   72.649, 250.241   65.035, 246.588   71.585, 241.258   73.614, 249.455   65.334, 247.797   70.364, 241.013   74.356, 248.455   65.923, 248.894   69.120, 241.078   74.827, 247.302   66.764, 249.812   67.931, 241.448   75.000, 246.069   67.806, 250.493   66.871, 242.100   74.862, 244.832   68.984, 250.896   66.004, 242.994   74.422, 243.667   70.225, 250.995   65.386, 244.075   73.709, 242.647   71.453, 250.784   65.053, 245.275   72.765, 241.834   72.590, 250.277   65.027, 246.519   71.650, 241.280   73.566, 249.505   65.310, 247.732   70.433, 241.019   74.322, 248.515   65.883, 248.837   69.189, 241.066   74.809, 247.369   66.712, 249.766   67.995, 241.420   74.998, 246.138   67.744, 250.462   66.925, 242.057   74.877, 244.899   68.917, 250.881   66.046, 242.939   74.454, 243.728   70.156, 250.998   65.413, 244.011   73.755, 242.698   71.386, 250.804   65.063, 245.206   72.823, 241.873   72.530, 250.313   65.020, 246.450   71.715, 241.303   73.517, 249.554   65.286, 247.667   70.502, 241.025   74.286, 248.574   65.844, 248.780   69.257, 241.056   74.789, 247.436   66.660, 249.721   68.058, 241.392   74.996, 246.208   67.683, 250.431   66.980, 242.015   74.892, 244.967   68.849, 250.866   66.089, 242.885   74.485, 243.790   70.087, 250.999   65.441, 243.948   73.800, 242.750   71.320, 250.823   65.075, 245.138   72.879, 241.912   72.470, 250.347   65.015, 246.381   71.780, 241.328   73.468, 249.602   65.263, 247.601   70.570, 241.033   74.250, 248.634   65.806, 248.722   69.325, 241.046   74.769, 247.502   66.609, 249.674   68.122, 241.366   74.992, 246.277   67.621, 250.398   67.036, 241.974   74.906, 245.035   68.782, 250.849   66.133, 242.831   74.515, 243.852   70.018, 251.000   65.469, 243.885   73.845, 242.803   71.253, 250.841   65.087, 245.070   72.936, 241.953   72.410, 250.381   65.010, 246.312   71.845, 241.353   73.418, 249.650   65.242, 247.536   70.639, 241.041   74.213, 248.692   65.769, 248.664   69.394, 241.037   74.748, 247.568   66.558, 249.627   68.187, 241.340   74.988, 246.346   67.561, 250.365   67.092, 241.933   74.919, 245.103   68.715, 250.832   66.177, 242.778   74.545, 243.915   69.949, 251.000   65.499, 243.822   73.889, 242.857   71.186, 250.857   65.101, 245.002   72.991, 241.994   72.349, 250.414   65.006, 246.243   71.909, 241.379   73.367, 249.697   65.221, 247.470   70.708, 241.050   74.176, 248.750   65.732, 248.605   69.463, 241.029   74.726, 247.633   66.508, 249.579   68.251, 241.316   74.983, 246.415   67.501, 250.330   67.148, 241.893   74.931, 245.171   68.648, 250.814   66.222, 242.725   74.573, 243.978   69.879, 250.999   65.530, 243.760   73.932, 242.911   71.118, 250.873   65.115, 244.934   73.047, 242.035   72.288, 250.446   65.003, 246.174   71.973, 241.406   73.315, 249.743   65.201, 247.403   70.776, 241.061   74.137, 248.808   65.697, 248.546   69.532, 241.022   74.703, 247.698   66.459, 249.530   68.316, 241.292   74.977, 246.484   67.441, 250.295   67.205, 241.854   74.942, 245.239   68.582, 250.795 " 
 fill="none" stroke="blue" />
  <polygon points="  15.000, 246.000    7.869, 250.523    6.817, 242.144   14.845, 244.765    9.052, 250.909    5.963, 243.050   14.390, 243.606   10.295, 250.991    5.359, 244.139   13.662, 242.595   11.519, 250.764    5.043, 245.343   12.707, 241.796   12.649, 250.241    5.035, 246.588   11.585, 241.258   13.614, 249.455    5.334, 247.797   10.364, 241.013   14.356, 248.455    5.923, 248.894    9.120, 241.078   14.827, 247.302    6.764, 249.812    7.931, 241.448   15.000, 246.069    7.806, 250.493    6.871, 242.100   14.862, 244.832    8.984, 250.896    6.004, 242.994   14.422, 243.667   10.225, 250.995    5.386, 244.075   13.709, 242.647   11.453, 250.784    5.053, 245.275   12.765, 241.834   12.590, 250.277    5.027, 246.519   11.650, 241.280   13.566, 249.505    5.310, 247.732   10.433, 241.019   14.322, 248.515    5.883, 248.837    9.189, 241.066   14.809, 247.369    6.712, 249.766    7.995, 241.420   14.998, 246.138    7.744, 250.462    6.925, 242.057   14.877, 244.899    8.917, 250.881    6.046, 242.939   14.454, 243.728   10.156, 250.998    5.413, 244.011   13.755, 242.698   11.386, 250.804    5.063, 245.206   12.823, 241.873   12.530, 250.313    5.020, 246.450   11.715, 241.303   13.517, 249.554    5.286, 247.667   10.502, 241.025   14.286, 248.574    5.844, 248.780    9.257, 241.056   14.789, 247.436    6.660, 249.721    8.058, 241.392   14.996, 246.208    7.683, 250.431    6.980, 242.015   14.892, 244.967    8.849, 250.866    6.089, 242.885   14.485, 243.790   10.087, 250.999    5.441, 243.948   13.800, 242.750   11.320, 250.823    5.075, 245.138   12.879, 241.912   12.470, 250.347    5.015, 246.381   11.780, 241.328   13.468, 249.602    5.263, 247.601   10.570, 241.033   14.250, 248.634    5.806, 248.722    9.325, 241.046   14.769, 247.502    6.609, 249.674    8.122, 241.366   14.992, 246.277    7.621, 250.398    7.036, 241.974   14.906, 245.035    8.782, 250.849    6.133, 242.831   14.515, 243.852   10.018, 251.000    5.469, 243.885   13.845, 242.803   11.253, 250.841    5.087, 245.070   12.936, 241.953   12.410, 250.381    5.010, 246.312   11.845, 241.353   13.418, 249.650    5.242, 247.536   10.639, 241.041   14.213, 248.692    5.769, 248.664    9.394, 241.037   14.748, 247.568    6.558, 249.627    8.187, 241.340   14.988, 246.346    7.561, 250.365    7.092, 241.933   14.919, 245.103    8.715, 250.832    6.177, 242.778   14.545, 243.915    9.949, 251.000    5.499, 243.822   13.889, 242.857   11.186, 250.857    5.101, 245.002   12.991, 241.994   12.349, 250.414    5.006, 246.243   11.909, 241.379   13.367, 249.697    5.221, 247.470   10.708, 241.050   14.176, 248.750    5.732, 248.605    9.463, 241.029   14.726, 247.633    6.508, 249.579    8.251, 241.316   14.983, 246.415    7.501, 250.330    7.148, 241.893   14.931, 245.171    8.648, 250.814    6.222, 242.725   14.573, 243.978    9.879, 250.999    5.530, 243.760   13.932, 242.911   11.118, 250.873    5.115, 244.934   13.047, 242.035   12.288, 250.446    5.003, 246.174   11.973, 241.406   13.315, 249.743    5.201, 247.403   10.776, 241.061   14.137, 248.808    5.697, 248.546    9.532, 241.022   14.703, 247.698    6.459, 249.530    8.316, 241.292   14.977, 246.484    7.441, 250.295    7.205, 241.854   14.942, 245.239    8.582, 250.795 " 
 fill="none" stroke="blue" />

<!--face--> 
  <polygon points=" 176.000,   6.000  256.000,   6.000  256.000,   9.000  252.000,   9.000  252.000,  19.000  256.000,  19.000  256.000,  96.000  176.000,  96.000  176.000,  19.000  180.000,  19.000  180.000,   9.000  176.000,   9.000  176.000,   6.000 " 
 fill="none" stroke="black" />

<!--text--> 
  <style>
  .small { font: bold 6px sans-serif; fill: red;}
  </style>
  <text x="216" y="51" text-anchor="middle" class="small"> Lasercutter shortage </text>

<!--face--> 
  <polygon points="  86.000, 215.000  160.000, 215.000  160.000, 239.250  163.000, 239.250  163.000, 287.750  160.000, 287.750  160.000, 312.000   86.000, 312.000   86.000, 287.750   83.000, 287.750   83.000, 239.250   86.000, 239.250   86.000, 215.000 " 
 fill="none" stroke="black" />
</svg>