<?xml version ="1.0" encoding="UTF-8" ?>
<svg xmlns="http://www.w3.org/2000/svg" version="1.1">

<!--face--> 
  <polygon points="0,0 2.250000e+01,0 2.250000e+01,3 44,3 44,6 4.270000e+01,6 4.270000e+01,7.500000e+00 44,7.500000e+00 44,1.050000e+01 46,1.050000e+01 46,7.500000e+00 4.730000e+01,7.500000e+00 4.730000e+01,6 46,6 46,3 6.750000e+01,3 6.750000e+01,0 90,0 90,25 87,25 87,49 84,49 84,4.770000e+01 8.250000e+01,4.770000e+01 8.250000e+01,49 7.950000e+01,49 7.950000e+01,51 8.250000e+01,51 8.250000e+01,5.230000e+01 84,5.230000e+01 84,51 87,51 87,75 90,75 90,100 6.750000e+01,100 6.750000e+01,97 46,97 46,94 4.730000e+01,94 4.730000e+01,9.250000e+01 46,9.250000e+01 46,8.950000e+01 44,8.950000e+01 44,9.250000e+01 4.270000e+01,9.250000e+01 4.270000e+01,94 44,94 44,97 2.250000e+01,97 2.250000e+01,100 0,100 0,75 3,75 3,51 6,51 6,5.230000e+01 7.500000e+00,5.230000e+01 7.500000e+00,51 1.050000e+01,51 1.050000e+01,49 7.500000e+00,49 7.500000e+00,4.770000e+01 6,4.770000e+01 6,49 3,49 3,25 0,25 0,0 " 
 fill="none" stroke="black" />

<!--face--> 
  <polygon points="3,1.045000e+02 87,1.045000e+02 87,1.305000e+02 90,1.305000e+02 90,1.855000e+02 87,1.855000e+02 87,210 6.750000e+01,210 6.750000e+01,213 2.250000e+01,213 2.250000e+01,210 3,210 3,1.855000e+02 0,1.855000e+02 0,1.305000e+02 3,1.305000e+02 3,103 " 
 fill="none" stroke="black" />
  <circle cx="45" cy="2.115000e+02" r="1"  fill="none" stroke="black" />
  <circle cx="8.850000e+01" cy="158" r="1"  fill="none" stroke="black" />
  <circle cx="1.500000e+00" cy="158" r="1"  fill="none" stroke="black" />

<!--text--> 
  <style>
  .small { font: bold 6px sans-serif; }  </style>  <text x="45" y="158" text-anchor="middle" class="small"> Digital Manufacturing </text>

<!--image--> 
  <image xlink:href="logo.png" x="45" y="158"" width="10" height="10" />

<!--face--> 
  <polygon points="3,2.175000e+02 87,2.175000e+02 87,2.435000e+02 90,2.435000e+02 90,2.985000e+02 87,2.985000e+02 87,323 6.750000e+01,323 6.750000e+01,326 2.250000e+01,326 2.250000e+01,323 3,323 3,2.985000e+02 0,2.985000e+02 0,2.435000e+02 3,2.435000e+02 3,216 " 
 fill="none" stroke="black" />
  <circle cx="45" cy="3.245000e+02" r="1"  fill="none" stroke="black" />
  <circle cx="8.850000e+01" cy="271" r="1"  fill="none" stroke="black" />
  <circle cx="1.500000e+00" cy="271" r="1"  fill="none" stroke="black" />

<!--face--> 
  <polygon points="93,6.000000e+00 9.324472e+01,4.454915e+00 9.395492e+01,3.061074e+00 9.506107e+01,1.954915e+00 9.645492e+01,1.244717e+00 98,1 9.954508e+01,1.244717e+00 1.009389e+02,1.954915e+00 1.020451e+02,3.061074e+00 1.027553e+02,4.454915e+00 103,6 193,6 193,3.350000e+01 190,3.350000e+01 190,60 187,60 187,5.870000e+01 1.855000e+02,5.870000e+01 1.855000e+02,60 1.825000e+02,60 1.825000e+02,62 1.855000e+02,62 1.855000e+02,6.330000e+01 187,6.330000e+01 187,62 190,62 190,8.850000e+01 193,8.850000e+01 193,113 168,113 168,116 118,116 118,113 93,113 93,8.850000e+01 96,8.850000e+01 96,62 99,62 99,6.330000e+01 1.005000e+02,6.330000e+01 1.005000e+02,62 1.035000e+02,62 1.035000e+02,60 1.005000e+02,60 1.005000e+02,5.870000e+01 99,5.870000e+01 99,60 96,60 96,3.350000e+01 93,3.350000e+01 93,6 " 
 fill="none" stroke="black" />
  <circle cx="143" cy="1.145000e+02" r="1"  fill="none" stroke="black" />
  <circle cx="98" cy="4" r="2.250000e+00"  fill="none" stroke="black" />

<!--face--> 
  <polygon points="1.263333e+02,3.275000e+01 1.293333e+02,3.275000e+01 1.293333e+02,8.625000e+01 1.263333e+02,8.625000e+01 1.263333e+02,3.275000e+01 " 
 fill="none" stroke="black" />

<!--face--> 
  <polygon points="93,122 9.324472e+01,1.204549e+02 9.395492e+01,1.190611e+02 9.506107e+01,1.179549e+02 9.645492e+01,1.172447e+02 98,117 9.954508e+01,1.172447e+02 1.009389e+02,1.179549e+02 1.020451e+02,1.190611e+02 1.027553e+02,1.204549e+02 103,122 193,122 193,1.495000e+02 190,1.495000e+02 190,176 187,176 187,1.747000e+02 1.855000e+02,1.747000e+02 1.855000e+02,176 1.825000e+02,176 1.825000e+02,178 1.855000e+02,178 1.855000e+02,1.793000e+02 187,1.793000e+02 187,178 190,178 190,2.045000e+02 193,2.045000e+02 193,229 168,229 168,232 118,232 118,229 93,229 93,2.045000e+02 96,2.045000e+02 96,178 99,178 99,1.793000e+02 1.005000e+02,1.793000e+02 1.005000e+02,178 1.035000e+02,178 1.035000e+02,176 1.005000e+02,176 1.005000e+02,1.747000e+02 99,1.747000e+02 99,176 96,176 96,1.495000e+02 93,1.495000e+02 93,122 " 
 fill="none" stroke="black" />
  <circle cx="143" cy="2.305000e+02" r="1"  fill="none" stroke="black" />
  <circle cx="98" cy="120" r="2.250000e+00"  fill="none" stroke="black" />

<!--face--> 
  <polygon points="1.263333e+02,1.487500e+02 1.293333e+02,1.487500e+02 1.293333e+02,2.022500e+02 1.263333e+02,2.022500e+02 1.263333e+02,1.487500e+02 " 
 fill="none" stroke="black" />

<!--pattern--> 
  <polygon points="6.750000e+01,271 3.540869e+01,2.913533e+02 3.067717e+01,2.536476e+02 6.680239e+01,2.654407e+02 4.073496e+01,2.930921e+02 2.683381e+01,2.577245e+02 6.475281e+01,2.602261e+02 4.632571e+01,2.934609e+02 2.411694e+01,2.626246e+02 6.147837e+01,2.556796e+02 5.183425e+01,2.924370e+02 2.269501e+01,2.680440e+02 5.718210e+01,2.520832e+02 5.691900e+01,2.900837e+02 2.265622e+01,2.736468e+02 5.213043e+01,2.496597e+02 6.126465e+01,2.865471e+02 2.400297e+01,2.790855e+02 4.663659e+01,2.485596e+02 6.460174e+01,2.820464e+02 2.665173e+01,2.840227e+02 4.104128e+01,2.488510e+02 6.672332e+01,2.768607e+02 3.043827e+01,2.881524e+02 3.569144e+01,2.505158e+02 6.749784e+01,2.713116e+02 3.512778e+01,2.912185e+02 3.091882e+01,2.534509e+02 6.687728e+01,2.657431e+02 4.042947e+01,2.930309e+02 2.701938e+01,2.574742e+02 6.490010e+01,2.605007e+02 4.601457e+01,2.934771e+02 2.423491e+01,2.623362e+02 6.168893e+01,2.559093e+02 5.153677e+01,2.925295e+02 2.273808e+01,2.677355e+02 5.744287e+01,2.522537e+02 5.665361e+01,2.902469e+02 2.262172e+01,2.733372e+02 5.242524e+01,2.497605e+02 6.104782e+01,2.867708e+02 2.389302e+01,2.787939e+02 4.694716e+01,2.485844e+02 6.444690e+01,2.823167e+02 2.647317e+01,2.837674e+02 4.134835e+01,2.487983e+02 6.664009e+01,2.771609e+02 3.020216e+01,2.879492e+02 3.597597e+01,2.503889e+02 6.749137e+01,2.716230e+02 3.484877e+01,2.910799e+02 3.116317e+01,2.532576e+02 6.694797e+01,2.660466e+02 4.012485e+01,2.929655e+02 2.720839e+01,2.572265e+02 6.504358e+01,2.607772e+02 4.570324e+01,2.934890e+02 2.435687e+01,2.620495e+02 6.189628e+01,2.561418e+02 5.123803e+01,2.926180e+02 2.278542e+01,2.674275e+02 5.770125e+01,2.524278e+02 5.638599e+01,2.904064e+02 2.259150e+01,2.730271e+02 5.271862e+01,2.498654e+02 6.082791e+01,2.869915e+02 2.378713e+01,2.785009e+02 4.725736e+01,2.486135e+02 6.428834e+01,2.825849e+02 2.629816e+01,2.835096e+02 4.165612e+01,2.487499e+02 6.655270e+01,2.774599e+02 2.996889e+01,2.877426e+02 3.626223e+01,2.502659e+02 6.748059e+01,2.719344e+02 3.457170e+01,2.909374e+02 3.141017e+01,2.530677e+02 6.701445e+01,2.663509e+02 3.982117e+01,2.928959e+02 2.740081e+01,2.569815e+02 6.518321e+01,2.610557e+02 4.539178e+01,2.934966e+02 2.448278e+01,2.617645e+02 6.210040e+01,2.563772e+02 5.093809e+01,2.927023e+02 2.283702e+01,2.671203e+02 5.795720e+01,2.526054e+02 5.611618e+01,2.905622e+02 2.256558e+01,2.727166e+02 5.301053e+01,2.499743e+02 6.060496e+01,2.872091e+02 2.368530e+01,2.782065e+02 4.756712e+01,2.486469e+02 6.412608e+01,2.828509e+02 2.612674e+01,2.832495e+02 4.196453e+01,2.487057e+02 6.646119e+01,2.777578e+02 2.973850e+01,2.875329e+02 3.655016e+01,2.501469e+02 6.746549e+01,2.722456e+02 3.429664e+01,2.907911e+02 3.165977e+01,2.528813e+02 6.707672e+01,2.666562e+02 3.951848e+01,2.928221e+02 2.759661e+01,2.567391e+02 6.531897e+01,2.613362e+02 4.508024e+01,2.934999e+02 2.461263e+01,2.614813e+02 6.230124e+01,2.566154e+02 5.063701e+01,2.927824e+02 2.289286e+01,2.668138e+02 5.821066e+01,2.527866e+02 5.584424e+01,2.907143e+02 2.254396e+01,2.724058e+02 5.330090e+01,2.500872e+02 6.037902e+01,2.874236e+02 2.358755e+01,2.779107e+02 4.787639e+01,2.486846e+02 6.396015e+01,2.831146e+02 2.595893e+01,2.829870e+02 4.227352e+01,2.486658e+02 6.636556e+01,2.780543e+02 2.951104e+01,2.873200e+02 3.683972e+01,2.500319e+02 6.744609e+01,2.725566e+02 3.402362e+01,2.906410e+02 3.191194e+01,2.526983e+02 6.713475e+01,2.669623e+02 3.921684e+01,2.927441e+02 2.779574e+01,2.564995e+02 6.545083e+01,2.616184e+02 4.476868e+01,2.934988e+02 2.474638e+01,2.611999e+02 6.249876e+01,2.568563e+02 5.033486e+01,2.928584e+02 2.295295e+01,2.665081e+02 5.846159e+01,2.529713e+02 5.557023e+01,2.908625e+02 2.252665e+01,2.720947e+02 5.358967e+01,2.502041e+02 6.015013e+01,2.876350e+02 2.349392e+01,2.776135e+02 4.818511e+01,2.487266e+02 6.379058e+01,2.833759e+02 2.579477e+01,2.827222e+02 4.258304e+01,2.486302e+02 6.626583e+01,2.783494e+02 2.928655e+01,2.871040e+02 3.713084e+01,2.499209e+02 6.742239e+01,2.728672e+02 3.375271e+01,2.904871e+02 3.216661e+01,2.525188e+02 6.718854e+01,2.672692e+02 3.891631e+01,2.926619e+02 2.799818e+01,2.562627e+02 6.557877e+01,2.619025e+02 4.445717e+01,2.934935e+02 2.488402e+01,2.609204e+02 6.269293e+01,2.571000e+02 5.003168e+01,2.929302e+02 2.301726e+01,2.662032e+02 5.870994e+01,2.531594e+02 5.529418e+01,2.910070e+02 2.251364e+01,2.717834e+02 5.387680e+01,2.503251e+02 5.991834e+01,2.878432e+02 2.340440e+01,2.773151e+02 4.849322e+01,2.487728e+02 6.361742e+01,2.836349e+02 2.563430e+01,2.824551e+02 4.289302e+01,2.485989e+02 6.616203e+01,2.786432e+02 2.906507e+01,2.868848e+02 3.742347e+01,2.498140e+02 6.739438e+01,2.731775e+02 3.348395e+01,2.903295e+02 3.242374e+01,2.523429e+02 6.723807e+01,2.675768e+02 3.861695e+01,2.925756e+02 " 
 fill="none" stroke="blue" />
  <polygon points="7.875000e+01,271 6.270435e+01,2.811766e+02 6.033859e+01,2.623238e+02 7.840119e+01,2.682203e+02 6.536748e+01,2.820460e+02 5.841691e+01,2.643622e+02 7.737641e+01,2.656131e+02 6.816286e+01,2.822305e+02 5.705847e+01,2.668123e+02 7.573919e+01,2.633398e+02 7.091713e+01,2.817185e+02 5.634751e+01,2.695220e+02 7.359105e+01,2.615416e+02 7.345950e+01,2.805418e+02 5.632811e+01,2.723234e+02 7.106521e+01,2.603299e+02 7.563233e+01,2.787735e+02 5.700148e+01,2.750427e+02 6.831830e+01,2.597798e+02 7.730087e+01,2.765232e+02 5.832587e+01,2.775114e+02 6.552064e+01,2.599255e+02 7.836166e+01,2.739303e+02 6.021914e+01,2.795762e+02 6.284572e+01,2.607579e+02 7.874892e+01,2.711558e+02 6.256389e+01,2.811093e+02 6.045941e+01,2.622255e+02 7.843864e+01,2.683716e+02 6.521474e+01,2.820154e+02 5.850969e+01,2.642371e+02 7.745005e+01,2.657503e+02 6.800729e+01,2.822386e+02 5.711746e+01,2.666681e+02 7.584446e+01,2.634546e+02 7.076838e+01,2.817648e+02 5.636904e+01,2.693677e+02 7.372144e+01,2.616268e+02 7.332681e+01,2.806235e+02 5.631086e+01,2.721686e+02 7.121262e+01,2.603803e+02 7.552391e+01,2.788854e+02 5.694651e+01,2.748970e+02 6.847358e+01,2.597922e+02 7.722345e+01,2.766584e+02 5.823659e+01,2.773837e+02 6.567417e+01,2.598992e+02 7.832004e+01,2.740804e+02 6.010108e+01,2.794746e+02 6.298798e+01,2.606945e+02 7.874569e+01,2.713115e+02 6.242439e+01,2.810400e+02 6.058158e+01,2.621288e+02 7.847398e+01,2.685233e+02 6.506243e+01,2.819827e+02 5.860419e+01,2.641133e+02 7.752179e+01,2.658886e+02 6.785162e+01,2.822445e+02 5.717843e+01,2.665248e+02 7.594814e+01,2.635709e+02 7.061901e+01,2.818090e+02 5.639271e+01,2.692138e+02 7.385063e+01,2.617139e+02 7.319299e+01,2.807032e+02 5.629575e+01,2.720135e+02 7.135931e+01,2.604327e+02 7.541395e+01,2.789957e+02 5.689356e+01,2.747505e+02 6.862868e+01,2.598068e+02 7.714417e+01,2.767925e+02 5.814908e+01,2.772548e+02 6.582806e+01,2.598749e+02 7.827635e+01,2.742300e+02 5.998445e+01,2.793713e+02 6.313111e+01,2.606330e+02 7.874029e+01,2.714672e+02 6.228585e+01,2.809687e+02 6.070508e+01,2.620339e+02 7.850723e+01,2.686755e+02 6.491059e+01,2.819479e+02 5.870041e+01,2.639907e+02 7.759160e+01,2.660279e+02 6.769589e+01,2.822483e+02 5.724139e+01,2.663823e+02 7.605020e+01,2.636886e+02 7.046904e+01,2.818511e+02 5.641851e+01,2.690601e+02 7.397860e+01,2.618027e+02 7.305809e+01,2.807811e+02 5.628279e+01,2.718583e+02 7.150526e+01,2.604871e+02 7.530248e+01,2.791046e+02 5.684265e+01,2.746032e+02 6.878356e+01,2.598235e+02 7.706304e+01,2.769254e+02 5.806337e+01,2.771247e+02 6.598226e+01,2.598528e+02 7.823059e+01,2.743789e+02 5.986925e+01,2.792664e+02 6.327508e+01,2.605735e+02 7.873275e+01,2.716228e+02 6.214832e+01,2.808956e+02 6.082989e+01,2.619406e+02 7.853836e+01,2.688281e+02 6.475924e+01,2.819110e+02 5.879830e+01,2.638696e+02 7.765948e+01,2.661681e+02 6.754012e+01,2.822499e+02 5.730631e+01,2.662407e+02 7.615062e+01,2.638077e+02 7.031851e+01,2.818912e+02 5.644643e+01,2.689069e+02 7.410533e+01,2.618933e+02 7.292212e+01,2.808571e+02 5.627198e+01,2.717029e+02 7.165045e+01,2.605436e+02 7.518951e+01,2.792118e+02 5.679378e+01,2.744553e+02 6.893820e+01,2.598423e+02 7.698007e+01,2.770573e+02 5.797946e+01,2.769935e+02 6.613676e+01,2.598329e+02 7.818278e+01,2.745271e+02 5.975552e+01,2.791600e+02 6.341986e+01,2.605160e+02 7.872305e+01,2.717783e+02 6.201181e+01,2.808205e+02 6.095597e+01,2.618491e+02 7.856737e+01,2.689812e+02 6.460842e+01,2.818720e+02 5.889787e+01,2.637498e+02 7.772542e+01,2.663092e+02 6.738434e+01,2.822494e+02 5.737319e+01,2.661000e+02 7.624938e+01,2.639282e+02 7.016743e+01,2.819292e+02 5.647647e+01,2.687540e+02 7.423080e+01,2.619856e+02 7.278511e+01,2.809313e+02 5.626332e+01,2.715474e+02 7.179484e+01,2.606021e+02 7.507507e+01,2.793175e+02 5.674696e+01,2.743067e+02 6.909256e+01,2.598633e+02 7.689529e+01,2.771880e+02 5.789739e+01,2.768611e+02 6.629152e+01,2.598151e+02 7.813292e+01,2.746747e+02 5.964327e+01,2.790520e+02 6.356542e+01,2.604605e+02 7.871119e+01,2.719336e+02 6.187635e+01,2.807436e+02 6.108331e+01,2.617594e+02 7.859427e+01,2.691346e+02 6.445816e+01,2.818310e+02 5.899909e+01,2.636313e+02 7.778939e+01,2.664513e+02 6.722858e+01,2.822467e+02 5.744201e+01,2.659602e+02 7.634646e+01,2.640500e+02 7.001584e+01,2.819651e+02 5.650863e+01,2.686016e+02 7.435497e+01,2.620797e+02 7.264709e+01,2.810035e+02 5.625682e+01,2.713917e+02 7.193840e+01,2.606625e+02 7.495917e+01,2.794216e+02 5.670220e+01,2.741575e+02 6.924661e+01,2.598864e+02 7.680871e+01,2.773175e+02 5.781715e+01,2.767276e+02 6.644651e+01,2.597994e+02 7.808101e+01,2.748216e+02 5.953253e+01,2.789424e+02 6.371174e+01,2.604070e+02 7.869719e+01,2.720888e+02 6.174198e+01,2.806648e+02 6.121187e+01,2.616714e+02 7.861903e+01,2.692884e+02 6.430848e+01,2.817878e+02 " 
 fill="none" stroke="blue" />
  <polygon points="3.375000e+01,271 1.770435e+01,2.811766e+02 1.533859e+01,2.623238e+02 3.340119e+01,2.682203e+02 2.036748e+01,2.820460e+02 1.341691e+01,2.643622e+02 3.237641e+01,2.656131e+02 2.316286e+01,2.822305e+02 1.205847e+01,2.668123e+02 3.073919e+01,2.633398e+02 2.591713e+01,2.817185e+02 1.134751e+01,2.695220e+02 2.859105e+01,2.615416e+02 2.845950e+01,2.805418e+02 1.132811e+01,2.723234e+02 2.606521e+01,2.603299e+02 3.063233e+01,2.787735e+02 1.200148e+01,2.750427e+02 2.331830e+01,2.597798e+02 3.230087e+01,2.765232e+02 1.332587e+01,2.775114e+02 2.052064e+01,2.599255e+02 3.336166e+01,2.739303e+02 1.521914e+01,2.795762e+02 1.784572e+01,2.607579e+02 3.374892e+01,2.711558e+02 1.756389e+01,2.811093e+02 1.545941e+01,2.622255e+02 3.343864e+01,2.683716e+02 2.021474e+01,2.820154e+02 1.350969e+01,2.642371e+02 3.245005e+01,2.657503e+02 2.300729e+01,2.822386e+02 1.211746e+01,2.666681e+02 3.084446e+01,2.634546e+02 2.576838e+01,2.817648e+02 1.136904e+01,2.693677e+02 2.872144e+01,2.616268e+02 2.832681e+01,2.806235e+02 1.131086e+01,2.721686e+02 2.621262e+01,2.603803e+02 3.052391e+01,2.788854e+02 1.194651e+01,2.748970e+02 2.347358e+01,2.597922e+02 3.222345e+01,2.766584e+02 1.323659e+01,2.773837e+02 2.067417e+01,2.598992e+02 3.332004e+01,2.740804e+02 1.510108e+01,2.794746e+02 1.798798e+01,2.606945e+02 3.374569e+01,2.713115e+02 1.742439e+01,2.810400e+02 1.558158e+01,2.621288e+02 3.347398e+01,2.685233e+02 2.006243e+01,2.819827e+02 1.360419e+01,2.641133e+02 3.252179e+01,2.658886e+02 2.285162e+01,2.822445e+02 1.217843e+01,2.665248e+02 3.094814e+01,2.635709e+02 2.561901e+01,2.818090e+02 1.139271e+01,2.692138e+02 2.885063e+01,2.617139e+02 2.819299e+01,2.807032e+02 1.129575e+01,2.720135e+02 2.635931e+01,2.604327e+02 3.041395e+01,2.789957e+02 1.189356e+01,2.747505e+02 2.362868e+01,2.598068e+02 3.214417e+01,2.767925e+02 1.314908e+01,2.772548e+02 2.082806e+01,2.598749e+02 3.327635e+01,2.742300e+02 1.498445e+01,2.793713e+02 1.813111e+01,2.606330e+02 3.374029e+01,2.714672e+02 1.728585e+01,2.809687e+02 1.570508e+01,2.620339e+02 3.350723e+01,2.686755e+02 1.991059e+01,2.819479e+02 1.370041e+01,2.639907e+02 3.259160e+01,2.660279e+02 2.269589e+01,2.822483e+02 1.224139e+01,2.663823e+02 3.105020e+01,2.636886e+02 2.546904e+01,2.818511e+02 1.141851e+01,2.690601e+02 2.897860e+01,2.618027e+02 2.805809e+01,2.807811e+02 1.128279e+01,2.718583e+02 2.650526e+01,2.604871e+02 3.030248e+01,2.791046e+02 1.184265e+01,2.746032e+02 2.378356e+01,2.598235e+02 3.206304e+01,2.769254e+02 1.306337e+01,2.771247e+02 2.098226e+01,2.598528e+02 3.323059e+01,2.743789e+02 1.486925e+01,2.792664e+02 1.827508e+01,2.605735e+02 3.373275e+01,2.716228e+02 1.714832e+01,2.808956e+02 1.582989e+01,2.619406e+02 3.353836e+01,2.688281e+02 1.975924e+01,2.819110e+02 1.379830e+01,2.638696e+02 3.265948e+01,2.661681e+02 2.254012e+01,2.822499e+02 1.230631e+01,2.662407e+02 3.115062e+01,2.638077e+02 2.531851e+01,2.818912e+02 1.144643e+01,2.689069e+02 2.910533e+01,2.618933e+02 2.792212e+01,2.808571e+02 1.127198e+01,2.717029e+02 2.665045e+01,2.605436e+02 3.018951e+01,2.792118e+02 1.179378e+01,2.744553e+02 2.393820e+01,2.598423e+02 3.198007e+01,2.770573e+02 1.297946e+01,2.769935e+02 2.113676e+01,2.598329e+02 3.318278e+01,2.745271e+02 1.475552e+01,2.791600e+02 1.841986e+01,2.605160e+02 3.372305e+01,2.717783e+02 1.701181e+01,2.808205e+02 1.595597e+01,2.618491e+02 3.356737e+01,2.689812e+02 1.960842e+01,2.818720e+02 1.389787e+01,2.637498e+02 3.272542e+01,2.663092e+02 2.238434e+01,2.822494e+02 1.237319e+01,2.661000e+02 3.124938e+01,2.639282e+02 2.516743e+01,2.819292e+02 1.147647e+01,2.687540e+02 2.923080e+01,2.619856e+02 2.778511e+01,2.809313e+02 1.126332e+01,2.715474e+02 2.679484e+01,2.606021e+02 3.007507e+01,2.793175e+02 1.174696e+01,2.743067e+02 2.409256e+01,2.598633e+02 3.189529e+01,2.771880e+02 1.289739e+01,2.768611e+02 2.129152e+01,2.598151e+02 3.313292e+01,2.746747e+02 1.464327e+01,2.790520e+02 1.856542e+01,2.604605e+02 3.371119e+01,2.719336e+02 1.687635e+01,2.807436e+02 1.608331e+01,2.617594e+02 3.359427e+01,2.691346e+02 1.945816e+01,2.818310e+02 1.399909e+01,2.636313e+02 3.278939e+01,2.664513e+02 2.222858e+01,2.822467e+02 1.244201e+01,2.659602e+02 3.134646e+01,2.640500e+02 2.501584e+01,2.819651e+02 1.150863e+01,2.686016e+02 2.935497e+01,2.620797e+02 2.764709e+01,2.810035e+02 1.125682e+01,2.713917e+02 2.693840e+01,2.606625e+02 2.995917e+01,2.794216e+02 1.170220e+01,2.741575e+02 2.424661e+01,2.598864e+02 3.180871e+01,2.773175e+02 1.281715e+01,2.767276e+02 2.144651e+01,2.597994e+02 3.308101e+01,2.748216e+02 1.453253e+01,2.789424e+02 1.871174e+01,2.604070e+02 3.369719e+01,2.720888e+02 1.674198e+01,2.806648e+02 1.621187e+01,2.616714e+02 3.361903e+01,2.692884e+02 1.930848e+01,2.817878e+02 " 
 fill="none" stroke="blue" />
  <polygon points="8.437500e+01,271 7.635217e+01,2.760883e+02 7.516929e+01,2.666619e+02 8.420060e+01,2.696102e+02 7.768374e+01,2.765230e+02 7.420845e+01,2.676811e+02 8.368820e+01,2.683065e+02 7.908143e+01,2.766152e+02 7.352923e+01,2.689061e+02 8.286959e+01,2.671699e+02 8.045856e+01,2.763592e+02 7.317375e+01,2.702610e+02 8.179553e+01,2.662708e+02 8.172975e+01,2.757709e+02 7.316406e+01,2.716617e+02 8.053261e+01,2.656649e+02 8.281616e+01,2.748868e+02 7.350074e+01,2.730214e+02 7.915915e+01,2.653899e+02 8.365043e+01,2.737616e+02 7.416293e+01,2.742557e+02 7.776032e+01,2.654627e+02 8.418083e+01,2.724652e+02 7.510957e+01,2.752881e+02 7.642286e+01,2.658790e+02 8.437446e+01,2.710779e+02 7.628195e+01,2.760546e+02 7.522971e+01,2.666127e+02 8.421932e+01,2.696858e+02 7.760737e+01,2.765077e+02 7.425484e+01,2.676186e+02 8.372503e+01,2.683752e+02 7.900364e+01,2.766193e+02 7.355873e+01,2.688341e+02 8.292223e+01,2.672273e+02 8.038419e+01,2.763824e+02 7.318452e+01,2.701839e+02 8.186072e+01,2.663134e+02 8.166340e+01,2.758117e+02 7.315543e+01,2.715843e+02 8.060631e+01,2.656901e+02 8.276195e+01,2.749427e+02 7.347326e+01,2.729485e+02 7.923679e+01,2.653961e+02 8.361173e+01,2.738292e+02 7.411829e+01,2.741919e+02 7.783709e+01,2.654496e+02 8.416002e+01,2.725402e+02 7.505054e+01,2.752373e+02 7.649399e+01,2.658472e+02 8.437284e+01,2.711558e+02 7.621219e+01,2.760200e+02 7.529079e+01,2.665644e+02 8.423699e+01,2.697616e+02 7.753121e+01,2.764914e+02 7.430210e+01,2.675566e+02 8.376089e+01,2.684443e+02 7.892581e+01,2.766223e+02 7.358922e+01,2.687624e+02 8.297407e+01,2.672855e+02 8.030951e+01,2.764045e+02 7.319636e+01,2.701069e+02 8.192531e+01,2.663569e+02 8.159650e+01,2.758516e+02 7.314787e+01,2.715068e+02 8.067966e+01,2.657163e+02 8.270698e+01,2.749979e+02 7.344678e+01,2.728752e+02 7.931434e+01,2.654034e+02 8.357208e+01,2.738962e+02 7.407454e+01,2.741274e+02 7.791403e+01,2.654375e+02 8.413818e+01,2.726150e+02 7.499222e+01,2.751857e+02 7.656556e+01,2.658165e+02 8.437015e+01,2.712336e+02 7.614293e+01,2.759844e+02 7.535254e+01,2.665169e+02 8.425361e+01,2.698377e+02 7.745529e+01,2.764740e+02 7.435020e+01,2.674954e+02 8.379580e+01,2.685139e+02 7.884794e+01,2.766241e+02 7.362069e+01,2.686911e+02 8.302510e+01,2.673443e+02 8.023452e+01,2.764256e+02 7.320925e+01,2.700301e+02 8.198930e+01,2.664014e+02 8.152905e+01,2.758906e+02 7.314139e+01,2.714292e+02 8.075263e+01,2.657436e+02 8.265124e+01,2.750523e+02 7.342132e+01,2.728016e+02 7.939178e+01,2.654117e+02 8.353152e+01,2.739627e+02 7.403168e+01,2.740624e+02 7.799113e+01,2.654264e+02 8.411530e+01,2.726894e+02 7.493463e+01,2.751332e+02 7.663754e+01,2.657867e+02 8.436637e+01,2.713114e+02 7.607416e+01,2.759478e+02 7.541494e+01,2.664703e+02 8.426918e+01,2.699141e+02 7.737962e+01,2.764555e+02 7.439915e+01,2.674348e+02 8.382974e+01,2.685840e+02 7.877006e+01,2.766250e+02 7.365316e+01,2.686203e+02 8.307531e+01,2.674038e+02 8.015925e+01,2.764456e+02 7.322322e+01,2.699534e+02 8.205267e+01,2.664466e+02 8.146106e+01,2.759286e+02 7.313599e+01,2.713514e+02 8.082522e+01,2.657718e+02 8.259476e+01,2.751059e+02 7.339689e+01,2.727277e+02 7.946910e+01,2.654212e+02 8.349004e+01,2.740286e+02 7.398973e+01,2.739967e+02 7.806838e+01,2.654165e+02 8.409139e+01,2.727636e+02 7.487776e+01,2.750800e+02 7.670993e+01,2.657580e+02 8.436152e+01,2.713891e+02 7.600590e+01,2.759103e+02 7.547798e+01,2.664246e+02 8.428369e+01,2.699906e+02 7.730421e+01,2.764360e+02 7.444894e+01,2.673749e+02 8.386271e+01,2.686546e+02 7.869217e+01,2.766247e+02 7.368660e+01,2.685500e+02 8.312469e+01,2.674641e+02 8.008371e+01,2.764646e+02 7.323824e+01,2.698770e+02 8.211540e+01,2.664928e+02 8.139256e+01,2.759656e+02 7.313166e+01,2.712737e+02 8.089742e+01,2.658010e+02 8.253753e+01,2.751588e+02 7.337348e+01,2.726534e+02 7.954628e+01,2.654316e+02 8.344765e+01,2.740940e+02 7.394869e+01,2.739305e+02 7.814576e+01,2.654075e+02 8.406646e+01,2.728374e+02 7.482164e+01,2.750260e+02 7.678271e+01,2.657302e+02 8.435560e+01,2.714668e+02 7.593818e+01,2.758718e+02 7.554165e+01,2.663797e+02 8.429713e+01,2.700673e+02 7.722908e+01,2.764155e+02 7.449954e+01,2.673157e+02 8.389469e+01,2.687256e+02 7.861429e+01,2.766234e+02 7.372101e+01,2.684801e+02 8.317323e+01,2.675250e+02 8.000792e+01,2.764825e+02 7.325432e+01,2.698008e+02 8.217749e+01,2.665398e+02 8.132355e+01,2.760017e+02 7.312841e+01,2.711959e+02 8.096920e+01,2.658313e+02 8.247959e+01,2.752108e+02 7.335110e+01,2.725788e+02 7.962330e+01,2.654432e+02 8.340435e+01,2.741587e+02 7.390858e+01,2.738638e+02 7.822325e+01,2.653997e+02 8.404051e+01,2.729108e+02 7.476627e+01,2.749712e+02 7.685587e+01,2.657035e+02 8.434860e+01,2.715444e+02 7.587099e+01,2.758324e+02 7.560594e+01,2.663357e+02 8.430952e+01,2.701442e+02 7.715424e+01,2.763939e+02 " 
 fill="none" stroke="blue" />
  <polygon points="1.687500e+01,271 8.852173e+00,2.760883e+02 7.669293e+00,2.666619e+02 1.670060e+01,2.696102e+02 1.018374e+01,2.765230e+02 6.708453e+00,2.676811e+02 1.618820e+01,2.683065e+02 1.158143e+01,2.766152e+02 6.029234e+00,2.689061e+02 1.536959e+01,2.671699e+02 1.295856e+01,2.763592e+02 5.673754e+00,2.702610e+02 1.429553e+01,2.662708e+02 1.422975e+01,2.757709e+02 5.664056e+00,2.716617e+02 1.303261e+01,2.656649e+02 1.531616e+01,2.748868e+02 6.000742e+00,2.730214e+02 1.165915e+01,2.653899e+02 1.615043e+01,2.737616e+02 6.662933e+00,2.742557e+02 1.026032e+01,2.654627e+02 1.668083e+01,2.724652e+02 7.609568e+00,2.752881e+02 8.922859e+00,2.658790e+02 1.687446e+01,2.710779e+02 8.781946e+00,2.760546e+02 7.729705e+00,2.666127e+02 1.671932e+01,2.696858e+02 1.010737e+01,2.765077e+02 6.754844e+00,2.676186e+02 1.622503e+01,2.683752e+02 1.150364e+01,2.766193e+02 6.058728e+00,2.688341e+02 1.542223e+01,2.672273e+02 1.288419e+01,2.763824e+02 5.684521e+00,2.701839e+02 1.436072e+01,2.663134e+02 1.416340e+01,2.758117e+02 5.655429e+00,2.715843e+02 1.310631e+01,2.656901e+02 1.526195e+01,2.749427e+02 5.973256e+00,2.729485e+02 1.173679e+01,2.653961e+02 1.611173e+01,2.738292e+02 6.618293e+00,2.741919e+02 1.033709e+01,2.654496e+02 1.666002e+01,2.725402e+02 7.550541e+00,2.752373e+02 8.993992e+00,2.658472e+02 1.687284e+01,2.711558e+02 8.712193e+00,2.760200e+02 7.790792e+00,2.665644e+02 1.673699e+01,2.697616e+02 1.003121e+01,2.764914e+02 6.802097e+00,2.675566e+02 1.626089e+01,2.684443e+02 1.142581e+01,2.766223e+02 6.089216e+00,2.687624e+02 1.547407e+01,2.672855e+02 1.280951e+01,2.764045e+02 5.696355e+00,2.701069e+02 1.442531e+01,2.663569e+02 1.409650e+01,2.758516e+02 5.647875e+00,2.715068e+02 1.317966e+01,2.657163e+02 1.520698e+01,2.749979e+02 5.946781e+00,2.728752e+02 1.181434e+01,2.654034e+02 1.607208e+01,2.738962e+02 6.574540e+00,2.741274e+02 1.041403e+01,2.654375e+02 1.663818e+01,2.726150e+02 7.492223e+00,2.751857e+02 9.065557e+00,2.658165e+02 1.687015e+01,2.712336e+02 8.642926e+00,2.759844e+02 7.852542e+00,2.665169e+02 1.675361e+01,2.698377e+02 9.955293e+00,2.764740e+02 6.850203e+00,2.674954e+02 1.629580e+01,2.685139e+02 1.134794e+01,2.766241e+02 6.120695e+00,2.686911e+02 1.552510e+01,2.673443e+02 1.273452e+01,2.764256e+02 5.709254e+00,2.700301e+02 1.448930e+01,2.664014e+02 1.402905e+01,2.758906e+02 5.641395e+00,2.714292e+02 1.325263e+01,2.657436e+02 1.515124e+01,2.750523e+02 5.921324e+00,2.728016e+02 1.189178e+01,2.654117e+02 1.603152e+01,2.739627e+02 6.531684e+00,2.740624e+02 1.049113e+01,2.654264e+02 1.661530e+01,2.726894e+02 7.434626e+00,2.751332e+02 9.137541e+00,2.657867e+02 1.686637e+01,2.713114e+02 8.574159e+00,2.759478e+02 7.914944e+00,2.664703e+02 1.676918e+01,2.699141e+02 9.879620e+00,2.764555e+02 6.899152e+00,2.674348e+02 1.632974e+01,2.685840e+02 1.127006e+01,2.766250e+02 6.153157e+00,2.686203e+02 1.557531e+01,2.674038e+02 1.265925e+01,2.764456e+02 5.723216e+00,2.699534e+02 1.455267e+01,2.664466e+02 1.396106e+01,2.759286e+02 5.635990e+00,2.713514e+02 1.332522e+01,2.657718e+02 1.509476e+01,2.751059e+02 5.896888e+00,2.727277e+02 1.196910e+01,2.654212e+02 1.599004e+01,2.740286e+02 6.489732e+00,2.739967e+02 1.056838e+01,2.654165e+02 1.659139e+01,2.727636e+02 7.377760e+00,2.750800e+02 9.209930e+00,2.657580e+02 1.686152e+01,2.713891e+02 8.505905e+00,2.759103e+02 7.977984e+00,2.664246e+02 1.678369e+01,2.699906e+02 9.804211e+00,2.764360e+02 6.948936e+00,2.673749e+02 1.636271e+01,2.686546e+02 1.119217e+01,2.766247e+02 6.186596e+00,2.685500e+02 1.562469e+01,2.674641e+02 1.258371e+01,2.764646e+02 5.738237e+00,2.698770e+02 1.461540e+01,2.664928e+02 1.389256e+01,2.759656e+02 5.631662e+00,2.712737e+02 1.339742e+01,2.658010e+02 1.503753e+01,2.751588e+02 5.873479e+00,2.726534e+02 1.204628e+01,2.654316e+02 1.594765e+01,2.740940e+02 6.448694e+00,2.739305e+02 1.064576e+01,2.654075e+02 1.656646e+01,2.728374e+02 7.321637e+00,2.750260e+02 9.282710e+00,2.657302e+02 1.685560e+01,2.714668e+02 8.438177e+00,2.758718e+02 8.041653e+00,2.663797e+02 1.679713e+01,2.700673e+02 9.729078e+00,2.764155e+02 6.999544e+00,2.673157e+02 1.639469e+01,2.687256e+02 1.111429e+01,2.766234e+02 6.221006e+00,2.684801e+02 1.567323e+01,2.675250e+02 1.250792e+01,2.764825e+02 5.754315e+00,2.698008e+02 1.467749e+01,2.665398e+02 1.382355e+01,2.760017e+02 5.628411e+00,2.711959e+02 1.346920e+01,2.658313e+02 1.497959e+01,2.752108e+02 5.851101e+00,2.725788e+02 1.212330e+01,2.654432e+02 1.590435e+01,2.741587e+02 6.408576e+00,2.738638e+02 1.072325e+01,2.653997e+02 1.654051e+01,2.729108e+02 7.266267e+00,2.749712e+02 9.355868e+00,2.657035e+02 1.684860e+01,2.715444e+02 8.370989e+00,2.758324e+02 8.105936e+00,2.663357e+02 1.680952e+01,2.701442e+02 9.654238e+00,2.763939e+02 " 
 fill="none" stroke="blue" />

<!--face--> 
  <polygon points="196,6 286,6 286,9 282,9 282,19 286,19 286,106 196,106 196,19 200,19 200,9 196,9 196,6 " 
 fill="none" stroke="black" />

<!--face--> 
  <polygon points="96,235 180,235 180,2.617500e+02 183,2.617500e+02 183,3.152500e+02 180,3.152500e+02 180,342 96,342 96,3.152500e+02 93,3.152500e+02 93,2.617500e+02 96,2.617500e+02 96,235 " 
 fill="none" stroke="black" />
</svg>