<?xml version ="1.0" encoding="UTF-8" ?>
<svg xmlns="http://www.w3.org/2000/svg" version="1.1">

<!--face--> 
  <polygon points="   0.000,   0.000   13.250,   0.000   13.250,   3.000   25.500,   3.000   25.500,   6.000   24.200,   6.000   24.200,   7.500   25.500,   7.500   25.500,  10.500   27.500,  10.500   27.500,   7.500   28.800,   7.500   28.800,   6.000   27.500,   6.000   27.500,   3.000   39.750,   3.000   39.750,   0.000   53.000,   0.000   53.000,   8.750   50.000,   8.750   50.000,  16.500   47.000,  16.500   47.000,  15.200   45.500,  15.200   45.500,  16.500   42.500,  16.500   42.500,  18.500   45.500,  18.500   45.500,  19.800   47.000,  19.800   47.000,  18.500   50.000,  18.500   50.000,  26.250   53.000,  26.250   53.000,  35.000   39.750,  35.000   39.750,  32.000   27.500,  32.000   27.500,  29.000   28.800,  29.000   28.800,  27.500   27.500,  27.500   27.500,  24.500   25.500,  24.500   25.500,  27.500   24.200,  27.500   24.200,  29.000   25.500,  29.000   25.500,  32.000   13.250,  32.000   13.250,  35.000    0.000,  35.000    0.000,  26.250    3.000,  26.250    3.000,  18.500    6.000,  18.500    6.000,  19.800    7.500,  19.800    7.500,  18.500   10.500,  18.500   10.500,  16.500    7.500,  16.500    7.500,  15.200    6.000,  15.200    6.000,  16.500    3.000,  16.500    3.000,   8.750    0.000,   8.750    0.000,   0.000 " 
 fill="none" stroke="black" />

<!--face--> 
  <polygon points="   3.000,  38.000   50.000,  38.000   50.000,  46.750   53.000,  46.750   53.000,  64.250   50.000,  64.250   50.000,  70.000   39.750,  70.000   39.750,  73.000   13.250,  73.000   13.250,  70.000    3.000,  70.000    3.000,  64.250    0.000,  64.250    0.000,  46.750    3.000,  46.750    3.000,  38.000 " 
 fill="none" stroke="black" />
  <circle cx="  26.500" cy="  71.500" r="   1.000"  fill="none" stroke="black" />
  <circle cx="  51.500" cy="  55.500" r="   1.000"  fill="none" stroke="black" />
  <circle cx="   1.500" cy="  55.500" r="   1.000"  fill="none" stroke="black" />

<!--text--> 
  <style>
  .small { font: bold 6px sans-serif; fill: red;}
  </style>
  <text x="2.650000e+01" y="5.550000e+01" text-anchor="middle" class="small"> www </text>

<!--face--> 
  <polygon points="   3.000,  76.000   50.000,  76.000   50.000,  84.750   53.000,  84.750   53.000, 102.250   50.000, 102.250   50.000, 108.000   39.750, 108.000   39.750, 111.000   13.250, 111.000   13.250, 108.000    3.000, 108.000    3.000, 102.250    0.000, 102.250    0.000,  84.750    3.000,  84.750    3.000,  76.000 " 
 fill="none" stroke="black" />
  <circle cx="  26.500" cy=" 109.500" r="   1.000"  fill="none" stroke="black" />
  <circle cx="  51.500" cy="  93.500" r="   1.000"  fill="none" stroke="black" />
  <circle cx="   1.500" cy="  93.500" r="   1.000"  fill="none" stroke="black" />

<!--face--> 
  <polygon points="  56.000,   6.000   56.367,   3.682   57.432,   1.592   59.092,  -0.068   61.182,  -1.133   63.500,  -1.500   65.818,  -1.133   67.908,  -0.068   69.568,   1.592   70.633,   3.682   71.000,   6.000   91.000,   6.000   91.000,  14.750   88.000,  14.750   88.000,  22.500   85.000,  22.500   85.000,  21.200   83.500,  21.200   83.500,  22.500   80.500,  22.500   80.500,  24.500   83.500,  24.500   83.500,  25.800   85.000,  25.800   85.000,  24.500   88.000,  24.500   88.000,  32.250   91.000,  32.250   91.000,  38.000   82.250,  38.000   82.250,  41.000   64.750,  41.000   64.750,  38.000   56.000,  38.000   56.000,  32.250   59.000,  32.250   59.000,  24.500   62.000,  24.500   62.000,  25.800   63.500,  25.800   63.500,  24.500   66.500,  24.500   66.500,  22.500   63.500,  22.500   63.500,  21.200   62.000,  21.200   62.000,  22.500   59.000,  22.500   59.000,  14.750   56.000,  14.750   56.000,   6.000 " 
 fill="none" stroke="black" />
  <circle cx="  73.500" cy="  39.500" r="   1.000"  fill="none" stroke="black" />
  <circle cx="  63.500" cy="   4.500" r="   2.250"  fill="none" stroke="black" />

<!--face--> 
  <polygon points="  56.000,  14.000   59.000,  14.000   59.000,  30.000   56.000,  30.000   56.000,  14.000 " 
 fill="none" stroke="black" />

<!--face--> 
  <polygon points="  56.000,  47.000   56.367,  44.682   57.432,  42.592   59.092,  40.932   61.182,  39.867   63.500,  39.500   65.818,  39.867   67.908,  40.932   69.568,  42.592   70.633,  44.682   71.000,  47.000   91.000,  47.000   91.000,  55.750   88.000,  55.750   88.000,  63.500   85.000,  63.500   85.000,  62.200   83.500,  62.200   83.500,  63.500   80.500,  63.500   80.500,  65.500   83.500,  65.500   83.500,  66.800   85.000,  66.800   85.000,  65.500   88.000,  65.500   88.000,  73.250   91.000,  73.250   91.000,  79.000   82.250,  79.000   82.250,  82.000   64.750,  82.000   64.750,  79.000   56.000,  79.000   56.000,  73.250   59.000,  73.250   59.000,  65.500   62.000,  65.500   62.000,  66.800   63.500,  66.800   63.500,  65.500   66.500,  65.500   66.500,  63.500   63.500,  63.500   63.500,  62.200   62.000,  62.200   62.000,  63.500   59.000,  63.500   59.000,  55.750   56.000,  55.750   56.000,  47.000 " 
 fill="none" stroke="black" />
  <circle cx="  73.500" cy="  80.500" r="   1.000"  fill="none" stroke="black" />
  <circle cx="  63.500" cy="  45.500" r="   2.250"  fill="none" stroke="black" />

<!--face--> 
  <polygon points="  56.000,  55.000   59.000,  55.000   59.000,  71.000   56.000,  71.000   56.000,  55.000 " 
 fill="none" stroke="black" />

<!--pattern--> 
  <polygon points="  35.250,  93.500   22.770, 101.415   20.930,  86.752   34.979,  91.338   24.841, 102.091   19.435,  88.337   34.182,  89.310   27.016, 102.235   18.379,  90.243   32.908,  87.542   29.158, 101.837   17.826,  92.350   31.237,  86.143   31.135, 100.921   17.811,  94.529   29.273,  85.201   32.825,  99.546   18.334,  96.644   27.136,  84.773   34.123,  97.796   19.365,  98.564   24.960,  84.886   34.948,  95.779   20.837, 100.170   22.880,  85.534   35.249,  93.621   22.661, 101.363   21.024,  86.675   35.008,  91.456   24.723, 102.068   19.508,  88.240   34.239,  89.417   26.895, 102.241   18.425,  90.131   32.990,  87.631   29.042, 101.873   17.843,  92.230   31.339,  86.210   31.032, 100.985   17.797,  94.409   29.388,  85.240   32.741,  99.633   18.292,  96.531   27.257,  84.783   34.063,  97.901   19.295,  98.465   25.080,  84.866   34.916,  95.896   20.745, 100.091   22.991,  85.485   35.247,  93.742   22.552, 101.309   21.119,  86.600   35.035,  91.574   24.604, 102.042   19.581,  88.144   34.295,  89.524   26.773, 102.246   18.472,  90.019   33.071,  87.722   28.926, 101.907   17.861,  92.111   31.439,  86.277   30.928, 101.047   17.786,  94.288   29.502,  85.281   32.655,  99.719   18.251,  96.417   27.378,  84.794   34.001,  98.005   19.227,  98.365   25.200,  84.847   34.882,  96.012   20.655, 100.011   23.102,  85.437   35.242,  93.863   22.445, 101.253   21.215,  86.526   35.061,  91.692   24.486, 102.015   19.656,  88.048   34.349,  89.633   26.652, 102.249   18.521,  89.908   33.150,  87.813   28.809, 101.940   17.881,  91.991   31.539,  86.347   30.823, 101.108   17.776,  94.168   29.615,  85.323   32.569,  99.804   18.211,  96.303   27.498,  84.807   33.938,  98.109   19.160,  98.264   25.320,  84.830   34.846,  96.128   20.565,  99.929   23.214,  85.390   35.237,  93.984   22.338, 101.197   21.312,  86.454   35.085,  91.811   24.368, 101.986   19.732,  87.954   34.402,  89.742   26.531, 102.250   18.572,  89.798   33.228,  87.906   28.692, 101.971   17.903,  91.872   31.637,  86.417   30.717, 101.167   17.767,  94.047   29.728,  85.367   32.481,  99.887   18.173,  96.187   27.619,  84.822   33.873,  98.211   19.095,  98.162   25.440,  84.814   34.809,  96.243   20.477,  99.847   23.327,  85.346   35.229,  94.105   22.231, 101.138   21.410,  86.383   35.108,  91.930   24.251, 101.956   19.809,  87.861   34.453,  89.852   26.410, 102.250   18.624,  89.689   33.305,  88.000   28.575, 102.000   17.926,  91.753   31.735,  86.489   30.611, 101.224   17.760,  93.926   29.840,  85.413   32.392,  99.969   18.137,  96.072   27.739,  84.838   33.807,  98.313   19.031,  98.059   25.560,  84.801   34.770,  96.358   20.389,  99.763   23.440,  85.303   35.220,  94.226   22.126, 101.078   21.509,  86.313   35.129,  92.049   24.134, 101.924   19.888,  87.769   34.503,  89.962   26.289, 102.247   18.677,  89.580   33.381,  88.094   28.457, 102.028   17.951,  91.635   31.832,  86.562   30.503, 101.280   17.755,  93.805   29.952,  85.460   32.302, 100.050   18.102,  95.956   27.858,  84.856   33.740,  98.414   18.969,  97.955   25.681,  84.788   34.730,  96.472   20.303,  99.677   23.554,  85.261   35.209,  94.347   22.022, 101.017   21.609,  86.244   35.148,  92.169   24.018, 101.891 " 
 fill="none" stroke="blue" />
  <polygon points="  39.625,  93.500   33.385,  97.458   32.465,  90.126   39.489,  92.419   34.421,  97.796   31.718,  90.919   39.091,  91.405   35.508,  97.867   31.189,  91.871   38.454,  90.521   36.579,  97.668   30.913,  92.925   37.619,  89.822   37.568,  97.211   30.905,  94.015   36.636,  89.351   38.413,  96.523   31.167,  95.072   35.568,  89.137   39.061,  95.648   31.682,  96.032   34.480,  89.193   39.474,  94.640   32.419,  96.835   33.440,  89.517   39.625,  93.561   33.330,  97.431   32.512,  90.088   39.504,  92.478   34.361,  97.784   31.754,  90.870   39.119,  91.458   35.447,  97.871   31.212,  91.815   38.495,  90.566   36.521,  97.686   30.921,  92.865   37.669,  89.855   37.516,  97.242   30.899,  93.954   36.694,  89.370   38.370,  96.567   31.146,  95.015   35.629,  89.141   39.031,  95.700   31.648,  95.983   34.540,  89.183   39.458,  94.698   32.373,  96.796   33.495,  89.492   39.623,  93.621   33.276,  97.404   32.560,  90.050   39.518,  92.537   34.302,  97.771   31.791,  90.822   39.147,  91.512   35.387,  97.873   31.236,  91.760   38.535,  90.611   36.463,  97.703   30.930,  92.805   37.720,  89.889   37.464,  97.273   30.893,  93.894   36.751,  89.390   38.328,  96.609   31.125,  94.959   35.689,  89.147   39.001,  95.753   31.614,  95.932   34.600,  89.174   39.441,  94.756   32.327,  96.756   33.551,  89.468   39.621,  93.682   33.222,  97.377   32.608,  90.013   39.531,  92.596   34.243,  97.758   31.828,  90.774   39.175,  91.566   35.326,  97.874   31.261,  91.704   38.575,  90.657   36.405,  97.720   30.941,  92.746   37.769,  89.923   37.411,  97.304   30.888,  93.834   36.808,  89.412   38.284,  96.652   31.105,  94.901   35.749,  89.154   38.969,  95.804   31.580,  95.882   34.660,  89.165   39.423,  94.814   32.282,  96.715   33.607,  89.445   39.618,  93.742   33.169,  97.348   32.656,  89.977   39.543,  92.655   34.184,  97.743   31.866,  90.727   39.201,  91.621   35.266,  97.875   31.286,  91.649   38.614,  90.703   36.346,  97.735   30.951,  92.686   37.819,  89.959   37.359,  97.333   30.884,  93.773   36.864,  89.434   38.240,  96.693   31.086,  94.844   35.809,  89.161   38.937,  95.856   31.548,  95.831   34.720,  89.157   39.404,  94.872   32.238,  96.673   33.663,  89.423   39.615,  93.803   33.116,  97.319   32.705,  89.941   39.554,  92.715   34.125,  97.728   31.905,  90.680   39.227,  91.676   35.205,  97.875   31.312,  91.594   38.653,  90.750   36.287,  97.750   30.963,  92.627   37.868,  89.994   37.305,  97.362   30.880,  93.713   36.920,  89.456   38.196,  96.735   31.068,  94.786   35.869,  89.169   38.904,  95.906   31.516,  95.779   34.780,  89.150   39.385,  94.929   32.195,  96.631   33.720,  89.401   39.610,  93.863   33.063,  97.289   32.755,  89.906   39.564,  92.775   34.067,  97.712   31.944,  90.634   39.251,  91.731   35.144,  97.874   31.339,  91.540   38.690,  90.797   36.228,  97.764   30.976,  92.567   37.916,  90.031   37.252,  97.390   30.878,  93.652   36.976,  89.480   38.151,  96.775   31.051,  94.728   35.929,  89.178   38.870,  95.957   31.484,  95.727   34.840,  89.144   39.365,  94.986   32.152,  96.589   33.777,  89.381   39.604,  93.923   33.011,  97.259   32.805,  89.872   39.574,  92.834   34.009,  97.695 " 
 fill="none" stroke="blue" />
  <polygon points="  22.125,  93.500   15.885,  97.458   14.965,  90.126   21.989,  92.419   16.921,  97.796   14.218,  90.919   21.591,  91.405   18.008,  97.867   13.689,  91.871   20.954,  90.521   19.079,  97.668   13.413,  92.925   20.119,  89.822   20.068,  97.211   13.405,  94.015   19.136,  89.351   20.913,  96.523   13.667,  95.072   18.068,  89.137   21.561,  95.648   14.182,  96.032   16.980,  89.193   21.974,  94.640   14.919,  96.835   15.940,  89.517   22.125,  93.561   15.830,  97.431   15.012,  90.088   22.004,  92.478   16.861,  97.784   14.254,  90.870   21.619,  91.458   17.947,  97.871   13.712,  91.815   20.995,  90.566   19.021,  97.686   13.421,  92.865   20.169,  89.855   20.016,  97.242   13.399,  93.954   19.194,  89.370   20.870,  96.567   13.646,  95.015   18.129,  89.141   21.531,  95.700   14.148,  95.983   17.040,  89.183   21.958,  94.698   14.873,  96.796   15.995,  89.492   22.123,  93.621   15.776,  97.404   15.060,  90.050   22.018,  92.537   16.802,  97.771   14.291,  90.822   21.647,  91.512   17.887,  97.873   13.736,  91.760   21.035,  90.611   18.963,  97.703   13.430,  92.805   20.220,  89.889   19.964,  97.273   13.393,  93.894   19.251,  89.390   20.828,  96.609   13.625,  94.959   18.189,  89.147   21.501,  95.753   14.114,  95.932   17.100,  89.174   21.941,  94.756   14.827,  96.756   16.051,  89.468   22.121,  93.682   15.722,  97.377   15.108,  90.013   22.031,  92.596   16.743,  97.758   14.328,  90.774   21.675,  91.566   17.826,  97.874   13.761,  91.704   21.075,  90.657   18.905,  97.720   13.441,  92.746   20.269,  89.923   19.911,  97.304   13.388,  93.834   19.308,  89.412   20.784,  96.652   13.605,  94.901   18.249,  89.154   21.469,  95.804   14.080,  95.882   17.160,  89.165   21.923,  94.814   14.782,  96.715   16.107,  89.445   22.118,  93.742   15.669,  97.348   15.156,  89.977   22.043,  92.655   16.684,  97.743   14.366,  90.727   21.701,  91.621   17.766,  97.875   13.786,  91.649   21.114,  90.703   18.846,  97.735   13.451,  92.686   20.319,  89.959   19.859,  97.333   13.384,  93.773   19.364,  89.434   20.740,  96.693   13.586,  94.844   18.309,  89.161   21.437,  95.856   14.048,  95.831   17.220,  89.157   21.904,  94.872   14.738,  96.673   16.163,  89.423   22.115,  93.803   15.616,  97.319   15.205,  89.941   22.054,  92.715   16.625,  97.728   14.405,  90.680   21.727,  91.676   17.705,  97.875   13.812,  91.594   21.153,  90.750   18.787,  97.750   13.463,  92.627   20.368,  89.994   19.805,  97.362   13.380,  93.713   19.420,  89.456   20.696,  96.735   13.568,  94.786   18.369,  89.169   21.404,  95.906   14.016,  95.779   17.280,  89.150   21.885,  94.929   14.695,  96.631   16.220,  89.401   22.110,  93.863   15.563,  97.289   15.255,  89.906   22.064,  92.775   16.567,  97.712   14.444,  90.634   21.751,  91.731   17.644,  97.874   13.839,  91.540   21.190,  90.797   18.728,  97.764   13.476,  92.567   20.416,  90.031   19.752,  97.390   13.378,  93.652   19.476,  89.480   20.651,  96.775   13.551,  94.728   18.429,  89.178   21.370,  95.957   13.984,  95.727   17.340,  89.144   21.865,  94.986   14.652,  96.589   16.277,  89.381   22.104,  93.923   15.511,  97.259   15.305,  89.872   22.074,  92.834   16.509,  97.695 " 
 fill="none" stroke="blue" />
  <polygon points="  41.813,  93.500   38.693,  95.479   38.233,  91.813   41.745,  92.960   39.210,  95.648   37.859,  92.209   41.545,  92.453   39.754,  95.684   37.595,  92.686   41.227,  92.011   40.289,  95.584   37.456,  93.213   40.809,  91.661   40.784,  95.355   37.453,  93.757   40.318,  91.425   41.206,  95.012   37.584,  94.286   39.784,  91.318   41.531,  94.574   37.841,  94.766   39.240,  91.347   41.737,  94.070   38.209,  95.168   38.720,  91.508   41.812,  93.530   38.665,  95.466   38.256,  91.794   41.752,  92.989   39.181,  95.642   37.877,  92.185   41.560,  92.479   39.724,  95.685   37.606,  92.658   41.248,  92.033   40.261,  95.593   37.461,  93.183   40.835,  91.677   40.758,  95.371   37.449,  93.727   40.347,  91.435   41.185,  95.033   37.573,  94.258   39.814,  91.321   41.516,  94.600   37.824,  94.741   39.270,  91.342   41.729,  94.099   38.186,  95.148   38.748,  91.496   41.812,  93.561   38.638,  95.452   38.280,  91.775   41.759,  93.018   39.151,  95.636   37.895,  92.161   41.574,  92.506   39.693,  95.686   37.618,  92.630   41.268,  92.055   40.231,  95.602   37.465,  93.153   40.860,  91.694   40.732,  95.387   37.446,  93.697   40.375,  91.445   41.164,  95.055   37.563,  94.229   39.844,  91.324   41.500,  94.626   37.807,  94.716   39.300,  91.337   41.720,  94.128   38.164,  95.128   38.775,  91.484   41.811,  93.591   38.611,  95.438   38.304,  91.757   41.765,  93.048   39.122,  95.629   37.914,  92.137   41.587,  92.533   39.663,  95.687   37.630,  92.602   41.288,  92.078   40.202,  95.610   37.470,  93.123   40.885,  91.712   40.706,  95.402   37.444,  93.667   40.404,  91.456   41.142,  95.076   37.553,  94.201   39.875,  91.327   41.484,  94.652   37.790,  94.691   39.330,  91.332   41.712,  94.157   38.141,  95.107   38.803,  91.473   41.809,  93.621   38.584,  95.424   38.328,  91.738   41.771,  93.078   39.092,  95.622   37.933,  92.114   41.600,  92.560   39.633,  95.687   37.643,  92.575   41.307,  92.101   40.173,  95.618   37.476,  93.093   40.909,  91.729   40.679,  95.417   37.442,  93.637   40.432,  91.467   41.120,  95.097   37.543,  94.172   39.905,  91.330   41.468,  94.678   37.774,  94.665   39.360,  91.329   41.702,  94.186   38.119,  95.087   38.832,  91.461   41.807,  93.651   38.558,  95.410   38.353,  91.721   41.777,  93.107   39.063,  95.614   37.952,  92.090   41.613,  92.588   39.603,  95.687   37.656,  92.547   41.326,  92.125   40.144,  95.625   37.482,  93.063   40.934,  91.747   40.653,  95.431   37.440,  93.606   40.460,  91.478   41.098,  95.117   37.534,  94.143   39.935,  91.335   41.452,  94.703   37.758,  94.640   39.390,  91.325   41.693,  94.215   38.097,  95.066   38.860,  91.451   41.805,  93.682   38.532,  95.395   38.377,  91.703   41.782,  93.137   39.034,  95.606   37.972,  92.067   41.626,  92.616   39.572,  95.687   37.669,  92.520   41.345,  92.149   40.114,  95.632   37.488,  93.034   40.958,  91.765   40.626,  95.445   37.439,  93.576   40.488,  91.490   41.075,  95.138   37.525,  94.114   39.965,  91.339   41.435,  94.728   37.742,  94.614   39.420,  91.322   41.682,  94.243   38.076,  95.044   38.888,  91.440   41.802,  93.712   38.505,  95.379   38.402,  91.686   41.787,  93.167   39.004,  95.598 " 
 fill="none" stroke="blue" />
  <polygon points="  15.563,  93.500   12.443,  95.479   11.983,  91.813   15.495,  92.960   12.960,  95.648   11.609,  92.209   15.295,  92.453   13.504,  95.684   11.345,  92.686   14.977,  92.011   14.039,  95.584   11.206,  93.213   14.559,  91.661   14.534,  95.355   11.203,  93.757   14.068,  91.425   14.956,  95.012   11.334,  94.286   13.534,  91.318   15.281,  94.574   11.591,  94.766   12.990,  91.347   15.487,  94.070   11.959,  95.168   12.470,  91.508   15.562,  93.530   12.415,  95.466   12.006,  91.794   15.502,  92.989   12.931,  95.642   11.627,  92.185   15.310,  92.479   13.474,  95.685   11.356,  92.658   14.998,  92.033   14.011,  95.593   11.211,  93.183   14.585,  91.677   14.508,  95.371   11.199,  93.727   14.097,  91.435   14.935,  95.033   11.323,  94.258   13.564,  91.321   15.266,  94.600   11.574,  94.741   13.020,  91.342   15.479,  94.099   11.936,  95.148   12.498,  91.496   15.562,  93.561   12.388,  95.452   12.030,  91.775   15.509,  93.018   12.901,  95.636   11.645,  92.161   15.324,  92.506   13.443,  95.686   11.368,  92.630   15.018,  92.055   13.981,  95.602   11.215,  93.153   14.610,  91.694   14.482,  95.387   11.196,  93.697   14.125,  91.445   14.914,  95.055   11.313,  94.229   13.594,  91.324   15.250,  94.626   11.557,  94.716   13.050,  91.337   15.470,  94.128   11.914,  95.128   12.525,  91.484   15.561,  93.591   12.361,  95.438   12.054,  91.757   15.515,  93.048   12.872,  95.629   11.664,  92.137   15.337,  92.533   13.413,  95.687   11.380,  92.602   15.038,  92.078   13.952,  95.610   11.220,  93.123   14.635,  91.712   14.456,  95.402   11.194,  93.667   14.154,  91.456   14.892,  95.076   11.303,  94.201   13.625,  91.327   15.234,  94.652   11.540,  94.691   13.080,  91.332   15.462,  94.157   11.891,  95.107   12.553,  91.473   15.559,  93.621   12.334,  95.424   12.078,  91.738   15.521,  93.078   12.842,  95.622   11.683,  92.114   15.350,  92.560   13.383,  95.687   11.393,  92.575   15.057,  92.101   13.923,  95.618   11.226,  93.093   14.659,  91.729   14.429,  95.417   11.192,  93.637   14.182,  91.467   14.870,  95.097   11.293,  94.172   13.655,  91.330   15.218,  94.678   11.524,  94.665   13.110,  91.329   15.452,  94.186   11.869,  95.087   12.582,  91.461   15.557,  93.651   12.308,  95.410   12.103,  91.721   15.527,  93.107   12.813,  95.614   11.702,  92.090   15.363,  92.588   13.353,  95.687   11.406,  92.547   15.076,  92.125   13.894,  95.625   11.232,  93.063   14.684,  91.747   14.403,  95.431   11.190,  93.606   14.210,  91.478   14.848,  95.117   11.284,  94.143   13.685,  91.335   15.202,  94.703   11.508,  94.640   13.140,  91.325   15.443,  94.215   11.847,  95.066   12.610,  91.451   15.555,  93.682   12.282,  95.395   12.127,  91.703   15.532,  93.137   12.784,  95.606   11.722,  92.067   15.376,  92.616   13.322,  95.687   11.419,  92.520   15.095,  92.149   13.864,  95.632   11.238,  93.034   14.708,  91.765   14.376,  95.445   11.189,  93.576   14.238,  91.490   14.825,  95.138   11.275,  94.114   13.715,  91.339   15.185,  94.728   11.492,  94.614   13.170,  91.322   15.432,  94.243   11.826,  95.044   12.638,  91.440   15.552,  93.712   12.255,  95.379   12.152,  91.686   15.537,  93.167   12.754,  95.598 " 
 fill="none" stroke="blue" />

<!--face--> 
  <polygon points="  94.000,   6.000  147.000,   6.000  147.000,   9.000  143.000,   9.000  143.000,  19.000  147.000,  19.000  147.000,  41.000   94.000,  41.000   94.000,  19.000   98.000,  19.000   98.000,   9.000   94.000,   9.000   94.000,   6.000 " 
 fill="none" stroke="black" />

<!--text--> 
  <style>
  .small { font: bold 6px sans-serif; fill: red;}
  </style>
  <text x="1.205000e+02" y="2.350000e+01" text-anchor="middle" class="small"> ffff </text>
</svg>